<svg width="43px" height="43px" viewBox="0 0 32 32" xmlns="http://www.w3.org/2000/svg" xmlns:xlink="http://www.w3.org/1999/xlink" fill="#000000"><g id="SVGRepo_bgCarrier" stroke-width="0"></g><g id="SVGRepo_tracerCarrier" stroke-linecap="round" stroke-linejoin="round"></g><g id="SVGRepo_iconCarrier"> <defs> <clipPath id="clip-headset"> <rect width="32" height="32"></rect> </clipPath> </defs> <g id="headset" clip-path="url(#clip-headset)"> <g id="Group_3402" data-name="Group 3402" transform="translate(-260)"> <g id="Group_3395" data-name="Group 3395"> <g id="Group_3394" data-name="Group 3394"> <g id="Group_3393" data-name="Group 3393"> <path id="Path_4055" data-name="Path 4055" d="M276,0a12.549,12.549,0,0,0-12.534,12.535v7.414a5.511,5.511,0,0,0,5.505,5.505.92.92,0,0,0,.92-.921V15.365a.92.92,0,0,0-.92-.921,5.477,5.477,0,0,0-3.664,1.408V12.535a10.643,10.643,0,0,1,.308-2.5c1.622-3.32,5.66-5.682,10.385-5.682s8.763,2.362,10.385,5.682a10.643,10.643,0,0,1,.308,2.5v3.317a5.477,5.477,0,0,0-3.664-1.408.92.92,0,0,0-.92.921v9.168a.92.92,0,0,0,.92.921,5.465,5.465,0,0,0,2.478-.6v2.025a2.891,2.891,0,0,1-2.888,2.888h-1.471a1.709,1.709,0,0,0-1.634-1.229h-3.058a1.729,1.729,0,0,0,0,3.458h3.058a1.7,1.7,0,0,0,1.629-1.229h1.476a3.892,3.892,0,0,0,3.888-3.888V24.212a5.5,5.5,0,0,0,2.027-4.263V12.535A12.549,12.549,0,0,0,276,0Zm-7.95,16.4V23.5a3.665,3.665,0,0,1,0-7.094ZM276,3.43a13.393,13.393,0,0,0-8.928,3.234,10.675,10.675,0,0,1,17.856,0A13.393,13.393,0,0,0,276,3.43ZM279.514,31h-3.058a.721.721,0,0,1-.713-.745.713.713,0,0,1,.713-.713h3.058a.722.722,0,0,1,.713.745A.714.714,0,0,1,279.514,31Zm4.436-7.5V16.4a3.665,3.665,0,0,1,0,7.094Z" fill="#000000"></path> </g> </g> </g> <g id="Group_3398" data-name="Group 3398"> <g id="Group_3397" data-name="Group 3397"> <g id="Group_3396" data-name="Group 3396"> <path id="Path_4056" data-name="Path 4056" d="M270.813,14.519a.459.459,0,0,0-.46.46v9.94a.46.46,0,0,0,.92,0v-9.94A.459.459,0,0,0,270.813,14.519Z" fill="#000000"></path> </g> </g> </g> <g id="Group_3401" data-name="Group 3401"> <g id="Group_3400" data-name="Group 3400"> <g id="Group_3399" data-name="Group 3399"> <path id="Path_4057" data-name="Path 4057" d="M281.647,24.919v-9.94a.46.46,0,0,0-.92,0v9.94a.46.46,0,0,0,.92,0Z" fill="#000000"></path> </g> </g> </g> </g> </g> </g></svg>