<svg fill="#000000" width="21px" height="21px" viewBox="0 0 32 32" version="1.1" xmlns="http://www.w3.org/2000/svg" stroke="#000000" stroke-width="0.32"><g id="SVGRepo_bgCarrier" stroke-width="0"></g><g id="SVGRepo_tracerCarrier" stroke-linecap="round" stroke-linejoin="round"></g><g id="SVGRepo_iconCarrier"> <title>arrows-repeat</title> <path d="M10 7.75h16.188l-3.72 3.72c-0.134 0.136-0.218 0.322-0.218 0.528 0 0.415 0.336 0.751 0.751 0.751 0.207 0 0.394-0.083 0.529-0.219l5-5c0.025-0.026 0.017-0.064 0.038-0.093 0.040-0.052 0.098-0.088 0.124-0.151 0.013-0.050 0.020-0.108 0.020-0.167 0-0.011-0-0.021-0.001-0.032l0 0.002c0.009-0.041 0.014-0.087 0.014-0.135 0-0.004-0-0.008-0-0.011v0.001c-0.006-0.184-0.079-0.35-0.196-0.475l0 0-5-5c-0.136-0.135-0.323-0.218-0.529-0.218-0.415 0-0.751 0.336-0.751 0.751 0 0.206 0.083 0.393 0.218 0.528l3.721 3.72h-16.189c-0.219-0.021-0.473-0.033-0.729-0.033-4.345 0-7.884 3.454-8.020 7.766l-0 0.013c0 0.001 0 0.003 0 0.005 0 0.413 0.333 0.747 0.745 0.75h0.005c0.412-0 0.747-0.333 0.75-0.745v-0c0.002-0.255 0.122-6.251 7.25-6.255zM30.008 17.251h-0.008c-0.411 0.001-0.745 0.332-0.75 0.742v0c-0.004 0.255-0.16 6.251-7.25 6.257h-16.188l3.719-3.719c0.135-0.136 0.218-0.323 0.218-0.529 0-0.415-0.336-0.751-0.751-0.751-0.206 0-0.393 0.083-0.528 0.218l-5 5c-0.025 0.025-0.017 0.064-0.038 0.092-0.041 0.052-0.099 0.089-0.125 0.152-0.013 0.050-0.020 0.108-0.020 0.167 0 0.010 0 0.021 0.001 0.031l-0-0.001c-0.009 0.041-0.014 0.088-0.014 0.136 0 0.004 0 0.008 0 0.012v-0.001c0.006 0.184 0.080 0.351 0.197 0.475l-0-0 5 5c0.136 0.137 0.324 0.221 0.532 0.221 0.415 0 0.751-0.336 0.751-0.751 0-0.208-0.085-0.397-0.222-0.533l-3.72-3.719h16.189c0.219 0.021 0.473 0.033 0.73 0.033 4.345 0 7.884-3.454 8.019-7.767l0-0.012c0-0.001 0-0.002 0-0.003 0-0.411-0.331-0.745-0.742-0.75h-0z"></path> </g></svg>